<?xml version="1.0" standalone="no"?>
<!DOCTYPE svg PUBLIC "-//W3C//DTD SVG 20010904//EN"
 "http://www.w3.org/TR/2001/REC-SVG-20010904/DTD/svg10.dtd">
<svg version="1.0" xmlns="http://www.w3.org/2000/svg"
 width="128.000000pt" height="128.000000pt" viewBox="0 0 128.000000 128.000000"
 preserveAspectRatio="xMidYMid meet">
<metadata>
Created by potrace 1.11, written by Peter Selinger 2001-2013
</metadata>
<g transform="translate(0.000000,128.000000) scale(0.100000,-0.100000)"
fill="#000000" stroke="none">
<path d="M1135 1265 c-187 -33 -420 -146 -554 -269 l-44 -41 -101 -1 c-86 -1
-115 -6 -196 -33 -52 -18 -110 -42 -130 -53 -55 -33 -110 -90 -110 -114 0 -21
51 -74 71 -74 19 0 137 -61 152 -78 8 -9 17 -36 20 -59 3 -23 14 -55 26 -71
l20 -29 -29 -1 c-69 -2 -134 -71 -165 -176 -44 -147 14 -206 162 -166 109 30
183 96 183 163 l0 29 33 -20 c18 -10 49 -22 68 -26 42 -8 77 -49 129 -155 43
-86 61 -99 109 -72 105 58 206 335 170 464 -7 24 -2 34 42 80 113 118 209 297
255 472 26 99 38 203 24 224 -11 18 -53 20 -135 6z"/>
</g>
</svg>
